<svg width="200" height="240" xmlns="http://www.w3.org/2000/svg">
  <defs>
    <linearGradient id="bg" x1="0%" y1="0%" x2="100%" y2="100%">
      <stop offset="0%" style="stop-color:#8b0000;stop-opacity:1" />
      <stop offset="50%" style="stop-color:#a0522d;stop-opacity:1" />
      <stop offset="100%" style="stop-color:#654321;stop-opacity:1" />
    </linearGradient>
    <radialGradient id="face" cx="50%" cy="40%" r="60%">
      <stop offset="0%" style="stop-color:#deb887;stop-opacity:1" />
      <stop offset="100%" style="stop-color:#cd853f;stop-opacity:1" />
    </radialGradient>
    <linearGradient id="suit" x1="0%" y1="0%" x2="100%" y2="100%">
      <stop offset="0%" style="stop-color:#2f4f4f;stop-opacity:1" />
      <stop offset="100%" style="stop-color:#1c1c1c;stop-opacity:1" />
    </linearGradient>
  </defs>
  
  <!-- 穆夏风格背景 -->
  <rect width="200" height="240" fill="url(#bg)" rx="20" ry="20"/>
  
  <!-- 新艺术运动对称花纹 -->
  <path d="M 10 120 Q 30 100 50 120 Q 70 140 50 160 Q 30 140 10 120" fill="#daa520" opacity="0.4"/>
  <path d="M 150 120 Q 170 100 190 120 Q 170 140 150 160 Q 130 140 150 120" fill="#daa520" opacity="0.4"/>
  
  <!-- 穆夏式男性体型 -->
  <path d="M 75 85 Q 65 95 70 130 Q 75 170 100 180 Q 125 170 130 130 Q 135 95 125 85 Q 110 80 100 83 Q 90 80 75 85" fill="url(#suit)"/>
  
  <!-- 粗犷的面部轮廓 -->
  <ellipse cx="100" cy="55" rx="30" ry="33" fill="url(#face)"/>
  
  <!-- 穆夏风格流动头发 -->
  <path d="M 70 35 Q 85 20 100 30 Q 115 20 130 35 Q 135 50 125 65 Q 100 55 75 65 Q 65 50 70 35" fill="#696969"/>
  <path d="M 75 40 Q 90 35 100 38 Q 110 35 125 40 Q 120 50 100 48 Q 80 50 75 40" fill="#a9a9a9" opacity="0.6"/>
  
  <!-- 穆夏风格男性特征 -->
  <!-- 浓密的眼眉 -->
  <path d="M 85 48 Q 92 45 96 48" fill="none" stroke="#2f4f4f" stroke-width="3"/>
  <path d="M 104 48 Q 108 45 115 48" fill="none" stroke="#2f4f4f" stroke-width="3"/>
  
  <!-- 坚毅的眼神 -->
  <ellipse cx="88" cy="52" rx="6" ry="4" fill="#8b4513"/>
  <ellipse cx="112" cy="52" rx="6" ry="4" fill="#8b4513"/>
  <ellipse cx="88" cy="52" rx="3" ry="3" fill="#000"/>
  <ellipse cx="112" cy="52" rx="3" ry="3" fill="#000"/>
  
  <!-- 穆夏风格胡须 -->
  <path d="M 82 65 Q 100 75 118 65 Q 115 80 100 85 Q 85 80 82 65" fill="#696969" opacity="0.8"/>
  <path d="M 88 70 Q 100 73 112 70" fill="#2f4f4f" opacity="0.6"/>
  
  <!-- 坚毅的嘴型 -->
  <path d="M 90 62 Q 100 65 110 62" fill="none" stroke="#8b4513" stroke-width="3"/>
  
  <!-- 穆夏风格正式服装 -->
  <rect x="80" y="90" width="40" height="80" rx="8" fill="url(#suit)"/>
  
  <!-- 新艺术运动风格衬衫 -->
  <path d="M 88 90 Q 100 85 112 90 L 108 125 Q 100 120 92 125 Z" fill="#f5f5f5"/>
  
  <!-- 穆夏风格领带 -->
  <path d="M 95 90 Q 100 88 105 90 L 103 130 Q 100 132 97 130 Z" fill="#8b0000"/>
  <ellipse cx="100" cy="100" r="4" fill="#daa520"/>
  <circle cx="100" cy="100" r="2" fill="#ff6347"/>
  
  <!-- 装饰性纽扣 -->
  <circle cx="85" cy="105" r="3" fill="#daa520"/>
  <circle cx="115" cy="105" r="3" fill="#daa520"/>
  <circle cx="85" cy="120" r="3" fill="#daa520"/>
  <circle cx="115" cy="120" r="3" fill="#daa520"/>
  
  <!-- 穆夏式装饰图案 -->
  <g transform="translate(75,135)">
    <path d="M 0 0 Q 10 -5 20 0 Q 25 10 20 20 Q 10 25 0 20 Q -5 10 0 0" fill="#cd853f" opacity="0.6"/>
    <circle cx="10" cy="10" r="4" fill="#daa520"/>
  </g>
  
  <!-- 穆夏风格装饰底部 -->
  <rect x="0" y="200" width="200" height="40" fill="#654321" rx="0 0 20 20"/>
  
  <!-- 新艺术运动装饰边框 -->
  <path d="M 5 205 Q 50 200 100 205 Q 150 200 195 205 Q 190 220 100 225 Q 10 220 5 205" fill="none" stroke="#daa520" stroke-width="2"/>
  
  <!-- 穆夏式男性装饰元素 -->
  <g transform="translate(20,210)">
    <rect x="0" y="0" width="8" height="12" fill="#cd853f"/>
    <circle cx="4" cy="6" r="2" fill="#daa520"/>
  </g>
  <g transform="translate(172,210)">
    <rect x="0" y="0" width="8" height="12" fill="#cd853f"/>
    <circle cx="4" cy="6" r="2" fill="#daa520"/>
  </g>
  
  <!-- 穆夏风格文字 -->
  <text x="100" y="218" text-anchor="middle" fill="#daa520" font-family="serif" font-size="13" font-weight="bold" font-style="italic">詹姆斯·莫里森</text>
  <text x="100" y="232" text-anchor="middle" fill="#cd853f" font-family="serif" font-size="11" font-style="italic">坚毅的商人</text>
</svg>