<svg width="200" height="240" xmlns="http://www.w3.org/2000/svg">
  <defs>
    <linearGradient id="bg" x1="0%" y1="0%" x2="100%" y2="100%">
      <stop offset="0%" style="stop-color:#f0fff0;stop-opacity:1" />
      <stop offset="50%" style="stop-color:#e6f3e6;stop-opacity:1" />
      <stop offset="100%" style="stop-color:#c8e6c9;stop-opacity:1" />
    </linearGradient>
    <radialGradient id="face" cx="50%" cy="40%" r="60%">
      <stop offset="0%" style="stop-color:#faf0e6;stop-opacity:1" />
      <stop offset="100%" style="stop-color:#f0d0b4;stop-opacity:1" />
    </radialGradient>
    <linearGradient id="uniform" x1="0%" y1="0%" x2="100%" y2="100%">
      <stop offset="0%" style="stop-color:#ffffff;stop-opacity:1" />
      <stop offset="100%" style="stop-color:#f0f8ff;stop-opacity:1" />
    </linearGradient>
  </defs>
  
  <!-- 清新的背景 -->
  <rect width="200" height="240" fill="url(#bg)" rx="15" ry="15"/>
  <rect width="196" height="236" x="2" y="2" fill="none" stroke="#90ee90" stroke-width="1" rx="13" ry="13" opacity="0.4"/>
  
  <!-- 医疗元素装饰 -->
  <circle cx="25" cy="25" r="3" fill="#dc143c" opacity="0.4"/>
  <rect x="23" y="20" width="4" height="2" fill="#dc143c" opacity="0.4"/>
  <rect x="20" y="23" width="10" height="4" fill="#dc143c" opacity="0.4"/>
  
  <circle cx="175" cy="25" r="3" fill="#dc143c" opacity="0.4"/>
  <rect x="173" y="20" width="4" height="2" fill="#dc143c" opacity="0.4"/>
  <rect x="170" y="23" width="10" height="4" fill="#dc143c" opacity="0.4"/>
  
  <!-- 主边框 -->
  <rect width="200" height="240" fill="none" stroke="#d4af37" stroke-width="3" rx="15" ry="15"/>
  
  <!-- 年轿女性的体型 -->
  <ellipse cx="100" cy="95" rx="44" ry="57" fill="url(#uniform)" opacity="0.9"/>
  
  <!-- 清秀的面容 -->
  <ellipse cx="100" cy="58" rx="28" ry="32" fill="url(#face)"/>
  
  <!-- 整齐的棕色头发 -->
  <path d="M 74 35 Q 85 25 100 30 Q 115 25 126 35 Q 124 50 115 55 Q 100 48 85 55 Q 76 50 74 35" fill="#8b4513" opacity="0.8"/>
  <path d="M 78 40 Q 90 38 100 40 Q 110 38 122 40" fill="#a0522d" opacity="0.6"/>
  
  <!-- 护士帽 -->
  <ellipse cx="100" cy="35" rx="22" ry="6" fill="#ffffff" stroke="#e0e0e0" stroke-width="1"/>
  <rect x="96" y="30" width="8" height="4" rx="2" fill="#dc143c"/>
  <rect x="98" y="32" width="4" height="2" fill="#ffffff"/>
  
  <!-- 清澈的双眼 -->
  <ellipse cx="92" cy="55" rx="4" ry="3" fill="#4682b4" opacity="0.8"/>
  <ellipse cx="108" cy="55" rx="4" ry="3" fill="#4682b4" opacity="0.8"/>
  <ellipse cx="92" cy="55" rx="2" ry="2" fill="#000"/>
  <ellipse cx="108" cy="55" rx="2" ry="2" fill="#000"/>
  
  <!-- 精致的眼眉 -->
  <path d="M 88 52 Q 92 50 96 52" fill="none" stroke="#8b4513" stroke-width="1" opacity="0.7"/>
  <path d="M 104 52 Q 108 50 112 52" fill="none" stroke="#8b4513" stroke-width="1" opacity="0.7"/>
  
  <!-- 温柔的微笑 -->
  <path d="M 94 65 Q 100 68 106 65" fill="none" stroke="#dc143c" stroke-width="2" opacity="0.6"/>
  
  <!-- 护士服 -->
  <rect x="80" y="85" width="40" height="70" rx="8" fill="url(#uniform)"/>
  
  <!-- 红十字标志 -->
  <rect x="94" y="95" width="12" height="3" fill="#dc143c"/>
  <rect x="98" y="91" width="4" height="11" fill="#dc143c"/>
  
  <!-- 护士服装饰线 -->
  <rect x="85" y="105" width="30" height="2" rx="1" fill="#e0e0e0"/>
  <rect x="85" y="115" width="30" height="2" rx="1" fill="#e0e0e0"/>
  <rect x="85" y="125" width="30" height="2" rx="1" fill="#e0e0e0"/>
  
  <!-- 纽扣 -->
  <circle cx="88" cy="100" r="2" fill="#ffffff" stroke="#e0e0e0" stroke-width="1"/>
  <circle cx="112" cy="100" r="2" fill="#ffffff" stroke="#e0e0e0" stroke-width="1"/>
  <circle cx="88" cy="110" r="2" fill="#ffffff" stroke="#e0e0e0" stroke-width="1"/>
  <circle cx="112" cy="110" r="2" fill="#ffffff" stroke="#e0e0e0" stroke-width="1"/>
  
  <!-- 医疗器械 -->
  <rect x="90" y="135" width="20" height="4" rx="2" fill="#c0c0c0"/>
  <rect x="92" y="137" width="16" height="2" rx="1" fill="#dc143c"/>
  
  <!-- 护士包 -->
  <rect x="70" y="125" width="12" height="10" rx="2" fill="#ffffff" stroke="#e0e0e0" stroke-width="1"/>
  <rect x="72" y="127" width="8" height="6" rx="1" fill="#f0f8ff"/>
  <path d="M 74 129 L 78 129" stroke="#dc143c" stroke-width="1"/>
  <path d="M 76 127 L 76 131" stroke="#dc143c" stroke-width="1"/>
  
  <!-- 手腕表 -->
  <circle cx="125" cy="130" r="5" fill="#c0c0c0" stroke="#808080" stroke-width="1"/>
  <circle cx="125" cy="130" r="3" fill="#f0f0f0"/>
  <line x1="125" y1="130" x2="127" y2="128" stroke="#000" stroke-width="1"/>
  
  <!-- 底部信息栏 -->
  <rect x="0" y="200" width="200" height="40" fill="rgba(72, 187, 120, 0.9)" rx="0 0 15 15"/>
  <rect x="5" y="205" width="190" height="30" fill="none" stroke="#d4af37" stroke-width="1" rx="5" opacity="0.6"/>
  
  <!-- 装饰性文字 -->
  <text x="100" y="215" text-anchor="middle" fill="#f0fff0" font-family="serif" font-size="13" font-weight="bold">维多利亚·斯特灵</text>
  <text x="100" y="230" text-anchor="middle" fill="#e6f3e6" font-family="serif" font-size="11" font-style="italic">神秘的年轻护士，28岁</text>
</svg>